<svg width="24" height="24" viewBox="0 0 24 24" fill="none" xmlns="http://www.w3.org/2000/svg">
<path d="M4 6C4 7.10457 4.89543 8 6 8V8C7.10457 8 8 7.10457 8 6V6C8 4.89543 7.10457 4 6 4V4C4.89543 4 4 4.89543 4 6V6ZM10 18C10 19.1046 10.8954 20 12 20V20C13.1046 20 14 19.1046 14 18V18C14 16.8954 13.1046 16 12 16V16C10.8954 16 10 16.8954 10 18V18ZM4 18C4 19.1046 4.89543 20 6 20V20C7.10457 20 8 19.1046 8 18V18C8 16.8954 7.10457 16 6 16V16C4.89543 16 4 16.8954 4 18V18ZM4 12C4 13.1046 4.89543 14 6 14V14C7.10457 14 8 13.1046 8 12V12C8 10.8954 7.10457 10 6 10V10C4.89543 10 4 10.8954 4 12V12ZM10 12C10 13.1046 10.8954 14 12 14V14C13.1046 14 14 13.1046 14 12V12C14 10.8954 13.1046 10 12 10V10C10.8954 10 10 10.8954 10 12V12ZM18 4C16.8954 4 16 4.89543 16 6V6C16 7.10457 16.8954 8 18 8V8C19.1046 8 20 7.10457 20 6V6C20 4.89543 19.1046 4 18 4V4ZM10 6C10 7.10457 10.8954 8 12 8V8C13.1046 8 14 7.10457 14 6V6C14 4.89543 13.1046 4 12 4V4C10.8954 4 10 4.89543 10 6V6ZM16 12C16 13.1046 16.8954 14 18 14V14C19.1046 14 20 13.1046 20 12V12C20 10.8954 19.1046 10 18 10V10C16.8954 10 16 10.8954 16 12V12ZM16 18C16 19.1046 16.8954 20 18 20V20C19.1046 20 20 19.1046 20 18V18C20 16.8954 19.1046 16 18 16V16C16.8954 16 16 16.8954 16 18V18Z" stroke="black" stroke-width="0.5"/>
</svg>
